<svg width="1007" height="928" viewBox="0 0 1007 928" fill="none" xmlns="http://www.w3.org/2000/svg">
<path fill-rule="evenodd" clip-rule="evenodd" d="M974.131 450.607C963.39 449.274 957.588 452.433 947.486 452.349C947.478 450.017 947.28 447.565 947.925 445.539C948.943 442.586 950.907 440.229 951.139 438.102C952.443 428.665 933.153 429.815 935.472 440.216C935.872 441.844 936.633 443.488 937.15 444.343C939.014 447.424 941.211 447.964 938.384 453.531L921.391 454.227C921.335 443.508 921.561 449.098 924.487 442.537C929.639 430.187 909.407 426.882 909.969 439.982C910.395 448.607 913.393 442.937 913.399 454.153L896.383 453.459C896.453 444.301 896.731 449.977 898.763 442.904C903.083 428.019 885.918 433.26 885.046 434.138C882.722 436.479 884.391 442.715 885.41 444.787C887.708 449.358 887.506 445.74 887.243 453.612C870.289 450.895 872.049 453.804 863.226 461.245C857.344 466.205 828.424 464.766 818.973 464.405L524.397 457.354C494.419 457.256 502.941 461.684 499.638 439.607C495.774 414.479 487.144 389.78 463.896 377.43C426.403 357.568 407.143 376.348 373.469 388.303C351.837 396.012 334.935 388.939 319.448 374.348C293.829 351.511 277.869 338.843 249.279 329.256C215.979 316.325 174.716 320.95 144.249 337.626C95.3795 363.681 68.0911 424.834 66.9373 480.695C65.8385 532.784 85.5791 580.681 124.338 614.035C170.248 652.063 243.936 650.615 291.347 614.806C305.047 604.415 316.412 593.45 329.274 583.8C368.946 561.088 387.821 587.654 424.105 595.858C434.438 598.256 453.034 599.63 456.93 586.17C459.911 575.835 445.544 562.904 440.308 551.93C425.759 521.695 448.366 517.721 469.874 513.476L692.129 511.098L828.035 508.946C872.728 509.025 857.968 510.707 870.735 517.71C874.911 519.976 881.341 519.592 887.084 519.04C887.068 528.867 877.39 536.825 888.033 539.737C895.741 541.853 897.496 538.571 899.156 533.008C899.217 525.959 894.057 526.51 896.171 518.219L913.217 518.191C913.219 528.241 913.666 523.764 911.689 527.063C909.916 530.123 909.195 534.533 910.873 538.66C912.993 541.585 924.249 543.191 924.757 536.689C924.938 534.476 925.049 531.955 924.87 529.726C924.425 525.32 921.098 530.254 921.106 518.094C926.971 517.936 934.103 517.362 939.323 519.229L936.969 527.316C935.029 531.644 934.263 533.276 935.426 537.131C936.468 540.591 950.743 542.358 950.64 532.72C950.535 527.524 949.717 529.07 948.993 527.872C946.558 523.268 947.257 526.935 947.264 519.218C952.512 519.199 966.57 522.733 971.402 521.446C979.489 519.359 973.316 510.12 979.109 499.604C981.92 494.397 983.176 481.016 979.787 473.482C975.361 463.654 976.33 461.198 974.131 450.607ZM223.242 504.537L223.222 460.839L267.503 460.817L267.497 468.534L233.403 468.588L233.393 480.165L251.829 480.115L251.84 488.056L233.404 488.105L233.396 504.706L223.242 504.537ZM302.06 474.858C304.255 474.816 305.988 475.17 306.014 477.725L306.029 481.807C306.055 484.362 304.29 484.729 302.043 484.685L282.081 484.723L282.045 474.81L302.06 474.858ZM273.492 504.528L273.431 468.684L305.69 468.688C310.715 468.687 314.15 470.116 314.102 475.638L314.063 484.076C314.127 492.102 306.628 490.911 300.711 490.984L317.773 504.505L305.253 504.482L290.249 490.884L282.034 490.828L282.049 504.377L273.492 504.528ZM328.543 504.535L328.483 468.692L366.933 468.691L366.904 475.019L337.252 475.075L337.297 482.878L354.567 482.833L354.572 489.024L337.302 489.069L337.248 497.867L367.398 497.861L367.353 504.55L328.543 504.535ZM379.191 477.17C379.166 470.173 381.785 468.706 388.473 468.75L416.205 468.805C422.979 468.798 425.557 470.16 425.496 477.209L425.53 496.006C425.547 505.695 419.352 504.534 411.995 504.544L416.727 513.719L408.066 513.699L404.054 504.555L388.534 504.594C381.845 504.549 379.164 503.015 379.276 496.052L379.191 477.17ZM387.977 497.684L387.965 475.252L416.863 475.302L416.875 497.735L408.575 497.73L403.633 487.629L397.365 490.019L401.08 497.706L387.977 497.684ZM449.356 468.737L449.323 497.858L474.311 497.819L474.343 468.699L483.141 468.753L483.103 496.124C483.128 503.121 480.286 504.606 473.649 504.647L449.914 504.63C443.225 504.585 440.596 503.137 440.571 496.14L440.609 468.769L449.356 468.737ZM499.082 504.573L499.022 468.73L537.558 468.677L537.529 475.005L507.877 475.061L507.922 482.864L525.192 482.819L525.197 489.01L507.927 489.055L507.873 497.853L538.023 497.847L537.978 504.536L499.082 504.573ZM550.584 504.508L550.523 468.664L556.491 468.677L587.036 492.509L587.001 468.688L594.942 468.676L595.002 504.519L588.948 504.558L558.643 480.349L558.661 504.53L550.584 504.508ZM608.911 504.521L608.914 500.662L635.164 475.083L611.566 475.099L611.543 468.685L649.273 468.652L649.285 472.151L622.504 497.818L649.292 497.858L649.333 504.495L608.911 504.521ZM672.033 497.777L672.088 475.07C678.279 475.065 692.355 473.796 696.845 477.742C701.043 481.397 700.754 491.739 696.221 495.065C691.261 498.651 678.447 497.753 672.033 497.777ZM663.242 504.497L663.181 468.653L687.363 468.635C694.274 468.662 699.596 470.117 703.346 473.225C710.983 479.474 710.932 493.881 703.03 499.946C699.097 502.91 693.117 504.423 685.176 504.435L663.242 504.497ZM722.015 504.474L721.954 468.631L730.615 468.651L730.675 504.494L722.015 504.474ZM746.693 504.505L746.719 468.61L785.169 468.609L785.14 474.937L755.488 474.993L755.533 482.796L772.803 482.751L772.808 488.942L755.538 488.987L755.484 497.785L785.634 497.779L785.589 504.468L746.693 504.505ZM798.195 504.44L798.134 468.596L830.393 468.6C835.418 468.599 838.887 469.89 838.89 475.498L838.923 479.803C838.953 483.524 836.182 485.318 832.822 485.947C836.546 486.5 839.247 488.84 839.158 492.75L839.123 497.329C839.077 503.435 832.872 504.383 827.984 504.418L798.195 504.44ZM826.47 474.48C828.442 474.455 830.38 474.569 830.355 477.038L830.316 480.451C830.29 482.921 828.37 483.031 826.398 483.055L806.83 482.971L806.816 474.448L826.47 474.48ZM826.419 488.886C828.889 488.911 830.708 489.213 830.718 492.129L830.711 494.821C830.721 497.737 828.904 498.018 826.435 497.992L806.832 498.046L806.817 488.939L826.419 488.886ZM170.432 593.632C175.62 581.729 196.293 583.833 196.782 600.483C197.061 611.184 185.692 616.541 176.589 612.698C169.152 609.484 167.439 600.469 170.432 593.632ZM424.507 402.542C425.866 398.798 423.925 398.102 428.102 395.926C433.7 393.008 439.785 392.248 445.248 394.904C450.712 397.56 455.573 404.437 455.355 410.646C455.187 416.357 451.499 416.25 450.542 417.18C451.209 407.076 450.389 398.573 439.651 397.823C440.939 398.212 443.875 404.033 444.827 406.379C452.163 424.497 417.669 422.924 431.511 404.266C434.411 400.174 432.638 398.208 435.243 397.684C428.455 398.635 429.848 399.779 424.507 402.542ZM970.444 455.525C969.201 476.847 976.049 468.848 975.992 486.53C975.948 502.685 970.207 494.354 970.165 516.117C967.92 516.657 960.183 515.844 955.309 514.936C954.21 514.665 950.334 514.439 952.166 513.798C953.862 513.123 955.091 511.678 956.425 510.404C955.975 499.807 952.49 498.876 945.99 498.951C916.924 499.588 880.416 491.401 850.308 488.577C849.809 483.502 849.795 484.446 855.368 483.997C863.545 483.024 879.65 483.566 884.841 477.271C873.711 477.225 853.423 482.135 850.022 480.569C850.781 477.188 849.5 478.547 854.129 478.085C885.468 475.022 914.785 472.481 946.497 472.933C954.987 473.057 951.997 471.593 956.066 468.079C956.313 465.009 956.726 460.668 954.266 458.533C952.958 457.338 950.439 457.81 954.894 456.868C959.676 456.079 965.248 455.63 970.444 455.525ZM400.053 574.644C359.968 558.805 341.104 554.088 304.292 590.029C284.852 606.58 268.842 618.369 243.074 625.424C201.097 636.791 164.489 629.017 133.841 605.015C60.6273 547.74 63.4275 420.409 131.572 360.721C166.732 332.675 215.778 327.199 256.451 344.202C273.577 351.841 289.013 361.904 302.248 374.702C313.434 385.466 326.887 397.079 342.902 400.949C377.73 409.45 393.95 384.679 423.619 379.821C468.566 374.137 490.807 416.315 490.691 455.537L421.952 454.927C420.101 445.879 424.964 438.847 414.018 437.754C407.911 437.125 377.55 435.622 373.33 440.044C369.895 443.641 372.013 455.45 371.96 459.806L320.68 459.27C320.677 453.662 323.546 440.824 317.346 438.497C310.598 436.034 292.116 437.747 284.432 437.603C280.522 437.515 276.56 437.34 273.083 438.742C270.772 444.581 271.545 449.723 271.534 456.275L255.942 455.422C255.822 450.586 255.429 446.266 254.178 441.88C252.059 434.513 239.287 435.811 239.875 442L241.142 455.492L226.375 455.425C226.346 447.262 226.737 441.533 225.217 433.803C218.54 432.232 215.501 431.266 209.285 433.741C205.732 442.551 206.038 527.683 207.67 528.449C209.732 529.539 210.655 538.213 225.038 531.85C226.767 526.013 226.156 518.435 226.217 511.386C231.645 509.154 240.979 510.287 247.839 510.228C247.959 524.531 247.804 529.299 262.236 526.88C263.829 521.592 264.837 515.723 262.639 510.158L271.077 510.196C271.724 513.778 271.17 516.918 271.371 520.536C272.221 532.761 274.502 523.2 270.025 546.712C258.832 605.491 284.327 584.459 310.248 577.077C307.734 574.273 314.3 568.899 299.181 575.59C258.837 592.748 278.781 554.038 277.972 529.516C289.518 525.804 303.772 531.207 315.767 528.625C323.222 527.038 318.571 516.645 321.562 513.667C322.773 511.999 365.217 511.452 371.546 511.481C372.484 524.237 368.68 529.927 379.639 530.076C393.068 530.251 405.878 529.982 419.956 529.297L421.963 515.226L433.9 515.252C433.332 514.894 409.819 543.259 441.212 574.29C464.59 598.833 404.038 576.208 400.053 574.644Z" fill="white" stroke="white" stroke-width="0.216" stroke-miterlimit="22.9256"/>
</svg>
