<svg width="916" height="322" viewBox="0 0 916 322" fill="none" xmlns="http://www.w3.org/2000/svg">
  <path fill-rule="evenodd" clip-rule="evenodd"
        d="M908.131 129.607C897.39 128.274 891.588 131.433 881.486 131.349C881.478 129.017 881.28 126.565 881.925 124.539C882.943 121.586 884.907 119.229 885.139 117.102C886.443 107.665 867.153 108.815 869.472 119.216C869.872 120.844 870.633 122.488 871.15 123.343C873.014 126.424 875.211 126.964 872.384 132.531L855.391 133.227C855.335 122.508 855.561 128.099 858.487 121.537C863.639 109.187 843.407 105.882 843.969 118.982C844.395 127.607 847.392 121.937 847.399 133.153L830.383 132.459C830.453 123.301 830.731 128.977 832.763 121.904C837.083 107.019 819.918 112.26 819.046 113.138C816.722 115.479 818.391 121.715 819.41 123.787C821.708 128.358 821.506 124.74 821.243 132.612C804.289 129.895 806.049 132.804 797.226 140.245C791.344 145.205 762.424 143.766 752.973 143.405L458.397 136.354C428.419 136.256 436.941 140.684 433.638 118.607C429.774 93.479 421.144 68.7798 397.896 56.4298C360.403 36.5679 341.143 55.3478 307.469 67.3025C285.837 75.0121 268.935 67.9386 253.448 53.3483C227.829 30.5109 211.869 17.8431 183.279 8.25632C149.979 -4.67495 108.716 -0.0502691 78.2489 16.6263C29.3795 42.6815 2.09107 103.834 0.937283 159.695C-0.161489 211.784 19.5791 259.681 58.338 293.035C104.248 331.063 177.936 329.615 225.347 293.806C239.047 283.416 250.412 272.45 263.274 262.8C302.946 240.088 321.821 266.654 358.105 274.858C368.438 277.256 387.034 278.63 390.93 265.17C393.911 254.835 379.544 241.904 374.308 230.93C359.759 200.695 382.366 196.721 403.874 192.476L626.129 190.098L762.035 187.946C806.728 188.025 791.968 189.707 804.735 196.71C808.911 198.976 815.341 198.592 821.084 198.04C821.068 207.867 811.39 215.825 822.033 218.737C829.741 220.853 831.496 217.571 833.156 212.008C833.217 204.959 828.057 205.51 830.171 197.219L847.217 197.191C847.219 207.241 847.666 202.764 845.689 206.063C843.916 209.123 843.195 213.533 844.873 217.66C846.993 220.585 858.249 222.191 858.757 215.689C858.938 213.476 859.049 210.955 858.87 208.726C858.425 204.32 855.098 209.254 855.106 197.094C860.971 196.936 868.103 196.362 873.323 198.229L870.969 206.316C869.029 210.644 868.263 212.276 869.426 216.131C870.468 219.591 884.743 221.358 884.64 211.72C884.535 206.524 883.717 208.07 882.993 206.872C880.558 202.268 881.257 205.935 881.264 198.218C886.512 198.199 900.57 201.733 905.402 200.446C913.489 198.359 907.316 189.12 913.109 178.604C915.92 173.397 917.176 160.016 913.787 152.482C909.361 142.654 910.33 140.198 908.131 129.607ZM157.242 183.537L157.222 139.839L201.503 139.817L201.497 147.534L167.403 147.588L167.393 159.165L185.829 159.115L185.84 167.056L167.404 167.105L167.396 183.706L157.242 183.537ZM236.06 153.858C238.255 153.816 239.988 154.17 240.014 156.725L240.029 160.807C240.055 163.362 238.29 163.729 236.043 163.685L216.081 163.723L216.045 153.81L236.06 153.858ZM207.492 183.528L207.431 147.684L239.69 147.688C244.715 147.687 248.15 149.116 248.102 154.638L248.063 163.076C248.127 171.102 240.628 169.911 234.711 169.984L251.773 183.505L239.253 183.482L224.249 169.884L216.034 169.828L216.049 183.377L207.492 183.528ZM262.543 183.535L262.483 147.692L300.933 147.691L300.904 154.019L271.252 154.075L271.297 161.878L288.567 161.833L288.572 168.024L271.302 168.069L271.248 176.867L301.398 176.861L301.353 183.55L262.543 183.535ZM313.191 156.17C313.166 149.173 315.785 147.706 322.473 147.75L350.205 147.805C356.979 147.798 359.557 149.16 359.496 156.209L359.53 175.006C359.547 184.695 353.352 183.534 345.995 183.544L350.727 192.719L342.066 192.699L338.054 183.555L322.534 183.594C315.845 183.549 313.164 182.015 313.276 175.052L313.191 156.17ZM321.977 176.684L321.965 154.252L350.863 154.302L350.875 176.735L342.575 176.73L337.633 166.629L331.365 169.019L335.08 176.706L321.977 176.684ZM383.356 147.737L383.323 176.858L408.311 176.819L408.343 147.699L417.141 147.753L417.103 175.124C417.128 182.121 414.286 183.606 407.649 183.647L383.914 183.63C377.225 183.585 374.596 182.137 374.571 175.14L374.609 147.769L383.356 147.737ZM433.082 183.573L433.022 147.73L471.558 147.677L471.529 154.005L441.877 154.061L441.922 161.864L459.192 161.819L459.197 168.01L441.927 168.055L441.873 176.853L472.023 176.847L471.978 183.536L433.082 183.573ZM484.584 183.508L484.523 147.665L490.491 147.677L521.036 171.509L521.001 147.688L528.942 147.676L529.002 183.519L522.948 183.558L492.643 159.349L492.661 183.53L484.584 183.508ZM542.911 183.521L542.914 179.662L569.164 154.083L545.566 154.099L545.543 147.685L583.273 147.652L583.285 151.151L556.504 176.818L583.292 176.858L583.333 183.495L542.911 183.521ZM606.033 176.777L606.088 154.07C612.279 154.065 626.355 152.796 630.845 156.742C635.043 160.397 634.754 170.739 630.221 174.066C625.261 177.651 612.447 176.753 606.033 176.777ZM597.242 183.497L597.181 147.653L621.363 147.635C628.274 147.662 633.596 149.117 637.346 152.225C644.983 158.474 644.932 172.881 637.03 178.946C633.097 181.91 627.117 183.423 619.176 183.435L597.242 183.497ZM656.015 183.474L655.954 147.631L664.615 147.651L664.675 183.494L656.015 183.474ZM680.693 183.505L680.719 147.61L719.169 147.609L719.14 153.937L689.488 153.993L689.533 161.796L706.803 161.751L706.808 167.942L689.538 167.987L689.484 176.785L719.634 176.779L719.589 183.468L680.693 183.505ZM732.195 183.44L732.134 147.596L764.393 147.6C769.418 147.599 772.887 148.89 772.89 154.498L772.923 158.803C772.953 162.524 770.182 164.318 766.822 164.947C770.546 165.5 773.247 167.84 773.158 171.75L773.123 176.329C773.076 182.435 766.872 183.383 761.984 183.418L732.195 183.44ZM760.47 153.48C762.442 153.455 764.38 153.569 764.355 156.038L764.316 159.451C764.291 161.921 762.37 162.031 760.398 162.055L740.83 161.971L740.816 153.448L760.47 153.48ZM760.419 167.886C762.889 167.911 764.708 168.213 764.718 171.129L764.711 173.821C764.721 176.737 762.904 177.018 760.435 176.992L740.832 177.046L740.817 167.939L760.419 167.886ZM104.432 272.632C109.62 260.729 130.293 262.833 130.782 279.483C131.061 290.184 119.692 295.541 110.589 291.698C103.152 288.484 101.439 279.469 104.432 272.632ZM358.507 81.5419C359.866 77.7983 357.925 77.1022 362.102 74.9262C367.7 72.0078 373.785 71.2484 379.248 73.9041C384.712 76.5599 389.573 83.4366 389.355 89.6457C389.187 95.3573 385.499 95.2505 384.542 96.18C385.209 86.0763 384.389 77.5729 373.651 76.8226C374.938 77.2124 377.875 83.0329 378.827 85.379C386.163 103.497 351.669 101.924 365.511 83.266C368.411 79.1739 366.638 77.208 369.243 76.6841C362.455 77.6347 363.848 78.7787 358.507 81.5419ZM904.444 134.525C903.201 155.847 910.049 147.848 909.992 165.53C909.948 181.685 904.207 173.354 904.165 195.117C901.92 195.657 894.183 194.844 889.309 193.936C888.21 193.665 884.334 193.439 886.166 192.798C887.862 192.123 889.091 190.678 890.424 189.404C889.975 178.807 886.49 177.876 879.99 177.951C850.924 178.588 814.416 170.401 784.308 167.577C783.809 162.502 783.795 163.446 789.368 162.997C797.545 162.024 813.65 162.566 818.841 156.271C807.711 156.225 787.423 161.135 784.022 159.569C784.781 156.188 783.5 157.547 788.129 157.085C819.468 154.022 848.785 151.481 880.497 151.933C888.987 152.057 885.997 150.593 890.066 147.079C890.313 144.009 890.726 139.668 888.266 137.533C886.958 136.338 884.439 136.81 888.894 135.868C893.676 135.079 899.248 134.63 904.444 134.525ZM334.053 253.644C293.968 237.805 275.104 233.088 238.292 269.029C218.852 285.581 202.842 297.369 177.074 304.424C135.097 315.792 98.4886 308.017 67.8409 284.015C-5.37267 226.74 -2.57251 99.4086 65.5724 39.7215C100.732 11.6748 149.778 6.19885 190.451 23.2024C207.577 30.8411 223.013 40.9041 236.248 53.7017C247.434 64.466 260.887 76.0795 276.902 79.9492C311.73 88.4503 327.95 63.6787 357.619 58.8214C402.566 53.1373 424.807 95.3148 424.691 134.537L355.952 133.927C354.101 124.879 358.964 117.847 348.018 116.754C341.911 116.125 311.55 114.622 307.33 119.044C303.895 122.641 306.013 134.45 305.96 138.806L254.68 138.27C254.677 132.662 257.546 119.824 251.346 117.497C244.598 115.034 226.116 116.747 218.432 116.603C214.522 116.514 210.56 116.34 207.083 117.742C204.772 123.581 205.545 128.723 205.534 135.275L189.942 134.422C189.822 129.586 189.429 125.266 188.178 120.88C186.059 113.513 173.287 114.811 173.875 121L175.142 134.492L160.375 134.425C160.346 126.262 160.737 120.533 159.217 112.803C152.54 111.233 149.501 110.266 143.285 112.741C139.732 121.551 140.038 206.683 141.67 207.449C143.732 208.539 144.655 217.213 159.038 210.85C160.767 205.013 160.156 197.435 160.217 190.386C165.645 188.154 174.979 189.287 181.839 189.228C181.959 203.531 181.804 208.299 196.236 205.88C197.829 200.592 198.837 194.723 196.639 189.158L205.077 189.196C205.724 192.778 205.17 195.918 205.371 199.536C206.221 211.761 208.502 202.2 204.025 225.712C192.832 284.491 218.327 263.459 244.248 256.077C241.734 253.273 248.3 247.899 233.181 254.59C192.837 271.748 212.78 233.038 211.972 208.516C223.518 204.804 237.772 210.207 249.767 207.625C257.222 206.038 252.571 195.645 255.562 192.667C256.773 190.999 299.217 190.452 305.546 190.481C306.484 203.237 302.68 208.927 313.639 209.076C327.068 209.251 339.878 208.982 353.956 208.297L355.963 194.226L367.9 194.252C367.332 193.894 343.819 222.259 375.212 253.29C398.59 277.833 338.038 255.208 334.053 253.644Z"
        fill="#211A1E" stroke="white" stroke-width="0.216" stroke-miterlimit="22.9256"/>
</svg>
