<svg width="286" height="48" viewBox="0 0 286 48" fill="none" xmlns="http://www.w3.org/2000/svg">
<path d="M0.88 1.12H17.68V6.928H9.472V16.72H16.624V22.72H9.472V40H0.88V1.12ZM21.6925 1.12H32.3965C36.6525 1.12 39.8685 1.872 42.0445 3.376C44.2205 4.88 45.3085 7.552 45.3085 11.392C45.3085 13.984 44.9725 16.048 44.3005 17.584C43.6285 19.12 42.3805 20.32 40.5565 21.184L45.8845 40H37.0045L32.7325 22.576H30.2845V40H21.6925V1.12ZM32.6845 17.632C34.4125 17.632 35.6125 17.184 36.2845 16.288C36.9885 15.36 37.3405 13.984 37.3405 12.16C37.3405 10.4 37.0205 9.088 36.3805 8.224C35.7405 7.328 34.6365 6.88 33.0685 6.88H30.2845V17.632H32.6845ZM50.4738 1.12H67.9458V6.976H59.0658V16.624H65.8338V22.576H59.0658V34.192H68.0418V40H50.4738V1.12ZM91.8625 47.632C90.7105 47.152 89.3345 46.208 87.7345 44.8C86.1345 43.424 84.8545 42 83.8945 40.528C83.7345 40.56 83.4625 40.576 83.0785 40.576C78.8865 40.576 75.8945 39.504 74.1025 37.36C72.3105 35.184 71.4145 31.984 71.4145 27.76V13.312C71.4145 9.088 72.3105 5.92 74.1025 3.808C75.8945 1.664 78.8865 0.591998 83.0785 0.591998C87.3025 0.591998 90.3105 1.664 92.1025 3.808C93.9265 5.952 94.8385 9.12 94.8385 13.312V27.76C94.8385 30.608 94.4225 32.992 93.5905 34.912C92.7905 36.8 91.4945 38.208 89.7025 39.136C91.3345 40.896 92.6625 42.032 93.6865 42.544L91.8625 47.632ZM83.0785 34.48C84.2945 34.48 85.0945 34.08 85.4785 33.28C85.8625 32.448 86.0545 31.328 86.0545 29.92V11.2C86.0545 9.76 85.8625 8.64 85.4785 7.84C85.0945 7.04 84.2945 6.64 83.0785 6.64C81.8625 6.64 81.0785 7.04 80.7265 7.84C80.3745 8.608 80.1985 9.728 80.1985 11.2V29.92C80.1985 31.328 80.3745 32.448 80.7265 33.28C81.0785 34.08 81.8625 34.48 83.0785 34.48ZM111.299 40.576C108.388 40.576 106.084 40.112 104.388 39.184C102.692 38.224 101.492 36.832 100.788 35.008C100.116 33.152 99.7795 30.8 99.7795 27.952V1.12H108.276V29.248C108.276 30.816 108.468 32.064 108.852 32.992C109.268 33.92 110.084 34.384 111.299 34.384C112.516 34.384 113.316 33.92 113.7 32.992C114.084 32.064 114.276 30.816 114.276 29.248V1.12H122.82V27.952C122.82 30.8 122.468 33.152 121.764 35.008C121.06 36.832 119.86 38.224 118.164 39.184C116.5 40.112 114.212 40.576 111.299 40.576ZM128.286 1.12H145.758V6.976H136.878V16.624H143.646V22.576H136.878V34.192H145.854V40H128.286V1.12ZM149.755 1.12H155.803L163.771 19.84V1.12H170.875V40H165.067L157.099 19.84V40H149.755V1.12ZM175.173 34.816L184.677 6.928H175.605V1.12H193.125V5.968L183.477 34.192H193.221V40H175.173V34.816ZM197.427 1.12H207.267C210.627 1.12 213.251 1.536 215.139 2.368C217.027 3.2 218.355 4.512 219.123 6.304C219.923 8.064 220.323 10.432 220.323 13.408V27.52C220.323 30.528 219.923 32.928 219.123 34.72C218.355 36.512 217.027 37.84 215.139 38.704C213.283 39.568 210.691 40 207.363 40H197.427V1.12ZM207.363 34.048C208.611 34.048 209.523 33.872 210.099 33.52C210.707 33.136 211.091 32.608 211.251 31.936C211.411 31.232 211.491 30.208 211.491 28.864V11.92C211.491 10.672 211.395 9.728 211.203 9.088C211.043 8.416 210.659 7.92 210.051 7.6C209.475 7.28 208.563 7.12 207.315 7.12H206.019V34.048H207.363ZM225.6 1.12H234.192V40H225.6V1.12ZM239.989 1.12H257.461V6.976H248.581V16.624H255.349V22.576H248.581V34.192H257.557V40H239.989V1.12ZM261.458 1.12H271.586C274.114 1.12 276.258 1.392 278.018 1.936C279.81 2.448 281.25 3.456 282.338 4.96C283.426 6.464 283.97 8.576 283.97 11.296C283.97 13.6 283.474 15.392 282.482 16.672C281.49 17.952 280.082 18.768 278.258 19.12C280.498 19.408 282.21 20.352 283.394 21.952C284.578 23.552 285.17 25.728 285.17 28.48C285.17 36.16 281.25 40 273.41 40H261.458V1.12ZM271.73 16.672C273.554 16.672 274.786 16.256 275.426 15.424C276.098 14.592 276.434 13.296 276.434 11.536C276.434 10 276.018 8.848 275.186 8.08C274.354 7.28 273.138 6.88 271.538 6.88H270.05V16.672H271.73ZM271.874 34C273.698 34 274.978 33.552 275.714 32.656C276.482 31.728 276.866 30.288 276.866 28.336C276.866 26.128 276.482 24.576 275.714 23.68C274.978 22.784 273.682 22.336 271.826 22.336H270.05V34H271.874Z" fill="white"/>
</svg>
