<svg width="500" height="800" xmlns="http://www.w3.org/2000/svg">
 <style type="text/css">.st0{opacity:0.2;fill:#000000;}
	.st1{fill:#000000;}
	.st2{opacity:0.2;}</style>

 <g>
  <title>background</title>
  <rect fill="none" id="canvas_background" height="802" width="502" y="-1" x="-1"/>
 </g>
 <g>
  <title>Layer 1</title>
  <g stroke="null" id="male_x5F_bouncer">
   <path stroke="null" id="svg_1" d="m90.528266,287.780584l11.312274,-31.108753c19.796479,-56.56137 73.529781,-96.154329 132.919219,-98.982397l0,0l0,0c0,25.452616 25.452616,45.249096 50.905233,36.76489l0,0c48.077164,2.828068 90.498192,31.108753 110.294671,73.529781l8.484205,19.796479l8.484205,-56.56137l-36.76489,-73.529781l-107.466603,-50.905233l-104.638534,16.968411l-70.701712,90.498192l-16.968411,73.529781l14.140342,0z" class="st0"/>
   <g stroke="null" id="svg_2" class="st2">
    <g stroke="null" id="svg_3">
     <path stroke="null" id="svg_4" d="m325.257951,448.980489c-5.656137,0 -8.484205,0 -14.140342,0c-39.592959,-8.484205 -82.013986,-8.484205 -121.606945,0c-2.828068,0 -8.484205,0 -14.140342,0c-48.077164,0 -87.670123,-48.077164 -101.810466,-115.950808l0,70.701712c0,82.013986 76.357849,149.88763 172.512178,149.88763l0,0c96.154329,0 172.512178,-67.873644 172.512178,-149.88763l0,-50.905233c-14.140342,56.56137 -50.905233,96.154329 -93.32626,96.154329z" class="st1"/>
    </g>
   </g>
   <g stroke="null" id="svg_5">
    <g stroke="null" id="svg_6">
     <path stroke="null" id="svg_7" d="m248.900102,570.587434c-104.638534,0 -186.652521,-84.842055 -186.652521,-186.652521l0,-98.982397c0,-104.638534 84.842055,-186.652521 186.652521,-186.652521s186.652521,84.842055 186.652521,186.652521l0,98.982397c0,101.810466 -82.013986,186.652521 -186.652521,186.652521zm0,-446.834822c-87.670123,0 -158.371836,70.701712 -158.371836,158.371836l0,98.982397c0,87.670123 70.701712,158.371836 158.371836,158.371836s158.371836,-70.701712 158.371836,-158.371836l0,-98.982397c0,-87.670123 -70.701712,-158.371836 -158.371836,-158.371836z" class="st1"/>
    </g>
   </g>
   <g stroke="null" id="svg_8">
    <g stroke="null" id="svg_9">
     <path stroke="null" id="svg_10" d="m67.903718,426.355941c-22.624548,0 -45.249096,-19.796479 -56.56137,-48.077164c-11.312274,-33.936822 -2.828068,-70.701712 22.624548,-79.185918c14.140342,-5.656137 33.936822,0 48.077164,14.140342l-19.796479,22.624548c-5.656137,-5.656137 -11.312274,-8.484205 -16.968411,-5.656137c-8.484205,2.828068 -11.312274,22.624548 -5.656137,39.592959c5.656137,19.796479 22.624548,31.108753 31.108753,28.280685l11.312274,28.280685c-5.656137,-2.828068 -11.312274,0 -14.140342,0z" class="st1"/>
    </g>
   </g>
   <g stroke="null" id="svg_11">
    <g stroke="null" id="svg_12">
     <path stroke="null" id="svg_13" d="m429.896486,426.355941c-5.656137,0 -8.484205,0 -14.140342,-2.828068l11.312274,-28.280685c8.484205,2.828068 22.624548,-8.484205 31.108753,-28.280685c5.656137,-19.796479 2.828068,-36.76489 -5.656137,-39.592959c-5.656137,-2.828068 -11.312274,0 -16.968411,5.656137l-19.796479,-22.624548c14.140342,-14.140342 31.108753,-19.796479 48.077164,-14.140342c25.452616,8.484205 36.76489,45.249096 22.624548,79.185918c-11.312274,31.108753 -33.936822,50.905233 -56.56137,50.905233z" class="st1"/>
    </g>
   </g>
   <g stroke="null" id="svg_14">
    <g stroke="null" id="svg_15">
     <path stroke="null" id="svg_16" d="m243.243965,463.120831c-16.968411,0 -36.76489,-8.484205 -45.249096,-25.452616c-5.656137,-8.484205 -2.828068,-16.968411 5.656137,-19.796479c8.484205,-5.656137 16.968411,-2.828068 19.796479,5.656137c5.656137,11.312274 22.624548,14.140342 33.936822,8.484205c8.484205,-5.656137 16.968411,-2.828068 19.796479,5.656137c5.656137,8.484205 2.828068,16.968411 -5.656137,19.796479c-8.484205,2.828068 -19.796479,5.656137 -28.280685,5.656137z" class="st1"/>
    </g>
   </g>
   <g stroke="null" id="svg_17">
    <g stroke="null" id="svg_18">
     <path stroke="null" id="svg_19" d="m376.163184,539.478681c0,0 0,0 0,0c-19.796479,-8.484205 -36.76489,-11.312274 -53.733301,-5.656137l0,0c-48.077164,14.140342 -98.982397,14.140342 -144.231493,0l0,0c-16.968411,-5.656137 -36.76489,-5.656137 -50.905233,2.828068l0,0c-45.249096,19.796479 -76.357849,48.077164 -76.357849,82.013986c0,56.56137 90.498192,104.638534 200.792863,104.638534c110.294671,0 200.792863,-48.077164 200.792863,-104.638534c-2.828068,-31.108753 -31.108753,-59.389438 -76.357849,-79.185918z" class="st1"/>
    </g>
   </g>
   <g stroke="null" id="svg_20">
    <g stroke="null" id="svg_21">
     <path stroke="null" id="svg_22" d="m70.731787,482.917311c-14.140342,0 -28.280685,-8.484205 -36.76489,-22.624548c-14.140342,-19.796479 -5.656137,-48.077164 14.140342,-62.217507c8.484205,-5.656137 16.968411,-2.828068 19.796479,5.656137c5.656137,8.484205 2.828068,16.968411 -5.656137,19.796479c-5.656137,2.828068 -8.484205,14.140342 -5.656137,19.796479s14.140342,8.484205 19.796479,5.656137c8.484205,-5.656137 16.968411,-2.828068 19.796479,5.656137c5.656137,8.484205 2.828068,16.968411 -5.656137,19.796479c-2.828068,5.656137 -11.312274,8.484205 -19.796479,8.484205z" class="st1"/>
    </g>
   </g>
   <g stroke="null" id="svg_23">
    <g stroke="null" id="svg_24">
     <path stroke="null" id="svg_25" d="m373.335116,321.717406l-248.870028,0c-11.312274,0 -22.624548,11.312274 -19.796479,22.624548l2.828068,50.905233c0,11.312274 8.484205,19.796479 19.796479,19.796479l45.249096,0c25.452616,0 45.249096,-16.968411 48.077164,-42.421027c2.828068,-11.312274 14.140342,-22.624548 25.452616,-22.624548c14.140342,0 22.624548,8.484205 25.452616,22.624548c2.828068,22.624548 25.452616,42.421027 48.077164,42.421027l45.249096,0c11.312274,0 19.796479,-8.484205 19.796479,-19.796479l2.828068,-50.905233c5.656137,-11.312274 -2.828068,-22.624548 -14.140342,-22.624548zm-203.620932,19.796479c-14.140342,2.828068 -25.452616,16.968411 -22.624548,31.108753l0,0c0,8.484205 -5.656137,14.140342 -14.140342,14.140342c-5.656137,0 -11.312274,-5.656137 -14.140342,-11.312274l0,-2.828068c0,-16.968411 11.312274,-31.108753 28.280685,-31.108753l28.280685,0l-5.656137,0zm175.340247,0c-14.140342,2.828068 -25.452616,16.968411 -22.624548,31.108753l0,0c0,8.484205 -5.656137,14.140342 -14.140342,14.140342c-5.656137,0 -11.312274,-5.656137 -14.140342,-11.312274l0,-2.828068c0,-16.968411 11.312274,-31.108753 28.280685,-31.108753l28.280685,0l-5.656137,0z" class="st1"/>
    </g>
   </g>
   <g stroke="null" id="svg_26">
    <g stroke="null" id="svg_27">
     <path stroke="null" id="svg_28" d="m263.040444,480.089242l-14.140342,0l-14.140342,0c-8.484205,0 -11.312274,8.484205 -8.484205,14.140342l14.140342,19.796479c2.828068,5.656137 11.312274,5.656137 14.140342,0l14.140342,-19.796479c5.656137,-5.656137 2.828068,-14.140342 -5.656137,-14.140342z" class="st1"/>
    </g>
   </g>
  </g>
 </g>
</svg>
